<svg xmlns="http://www.w3.org/2000/svg" fill="none" viewBox="0 0.2 48.8 43.8" style="max-height: 500px" width="48.8" height="43.8">
<path fill="#4C9FA7" d="M47.6569 21.4168C47.6569 32.0538 38.0685 42.8337 26.2401 42.8337C14.4116 42.8337 4.82324 33.2453 4.82324 21.4168C4.82324 9.58836 14.4116 0 26.2401 0C38.0685 0 47.6569 9.58836 47.6569 21.4168Z"/>
<path fill="#013455" d="M37.4382 39.3861C30.5517 43.7252 21.4894 43.7368 14.6056 39.3825C14.7235 37.589 14.2073 35.356 15.0165 33.7117C15.6176 32.4898 16.7511 31.6618 18.0471 31.2938H33.9029C35.2642 31.6163 36.578 32.6792 37.1113 33.9805C37.7722 35.5945 37.331 37.6658 37.4382 39.3861Z"/>
<path fill="white" d="M18.1381 14.5028L33.7492 14.4769C34.9738 14.5564 36.0313 15.5121 36.1162 16.7545C35.9009 19.6476 36.393 22.9318 36.1126 25.7784C35.9688 27.2325 34.7835 28.0533 33.3928 28.1498C28.5928 27.8738 23.4025 28.5053 18.649 28.1498C17.1868 28.0408 16.0802 27.2155 15.9292 25.6891C15.6443 22.8184 16.1409 19.4984 15.9283 16.5795C16.1195 15.4576 17.0475 14.6868 18.1399 14.5037L18.1381 14.5028ZM20.2469 21.7724C21.5 22.9934 23.6446 21.4321 22.6121 19.8092C21.3964 17.8996 18.6436 20.2112 20.2469 21.7724ZM30.373 19.1465C28.5616 19.4511 28.9448 22.3905 30.8481 22.211C32.9132 22.0163 32.5943 18.7731 30.373 19.1465ZM23.0488 23.6955C22.4165 23.8241 22.4254 24.6271 22.847 25.0219C23.8214 25.9338 25.7266 26.3241 27.0074 26.0508C27.7693 25.8883 29.8969 25.0835 29.4566 24.0385C29.0484 23.0694 27.7524 24.3841 27.1539 24.5896C26.2205 24.9093 25.2711 24.8102 24.4118 24.3511C23.9885 24.1251 23.5544 23.5928 23.0497 23.6955H23.0488Z"/>
<path fill="#013455" d="M23.0489 23.6955C23.5527 23.5927 23.9877 24.126 24.411 24.3511C25.2712 24.8102 26.2197 24.9093 27.1531 24.5895C27.7515 24.3841 29.0485 23.0693 29.4557 24.0384C29.8952 25.0835 27.7685 25.8882 27.0066 26.0508C25.7258 26.3241 23.8215 25.9338 22.8462 25.0218C22.4246 24.6271 22.4165 23.8241 23.048 23.6955H23.0489Z"/>
<path fill="#013455" d="M20.2469 21.7724C18.6436 20.2111 21.3964 17.8995 22.6121 19.8092C23.6446 21.4321 21.5009 22.9934 20.2469 21.7724Z"/>
<path fill="#013455" d="M30.373 19.1465C32.5944 18.7731 32.9132 22.0154 30.8482 22.211C28.9448 22.3905 28.5616 19.4511 30.373 19.1465Z"/>
<path fill="#003354" d="M5.76748 10.9515C11.4803 10.4316 14.6047 17.051 11.249 21.4384C11.1811 21.8582 12.0064 23.0104 12.0359 23.4802C12.118 24.7619 9.58318 23.3239 9.03119 23.2748C4.16243 25.4265 -1.1038 21.0382 0.202037 15.8363C0.854957 13.2336 3.0647 11.1971 5.76748 10.9515ZM6.67943 17.8013C6.87325 15.9676 5.37627 14.3751 3.54702 14.5358C3.25316 15.7586 3.75871 17.4592 4.91896 18.088C5.13153 18.2032 5.72282 18.3328 5.77374 18.4837C5.88449 19.0062 5.61296 20.9873 5.91754 21.2874C6.05688 21.425 6.32483 21.4071 6.50168 21.3303C6.84913 21.1258 6.57403 19.8762 6.71873 19.493C8.50063 19.1357 9.76628 17.695 9.62784 15.8354C8.63997 15.7345 7.88791 15.9399 7.26804 16.7366L6.68032 17.8004L6.67943 17.8013Z"/>
<path fill="white" d="M6.67935 17.8013L7.26707 16.7375C7.88694 15.9399 8.63811 15.7354 9.62687 15.8363C9.7662 17.695 8.50056 19.1357 6.71776 19.4939C6.57306 19.8771 6.84816 21.1258 6.50071 21.3312C6.32386 21.4071 6.0559 21.4259 5.91657 21.2883C5.61199 20.9882 5.88352 19.0071 5.77276 18.4846C5.72185 18.3328 5.13056 18.2041 4.91799 18.0889C3.75774 17.4601 3.25219 15.7595 3.54605 14.5367C5.3753 14.3759 6.87228 15.9685 6.67846 17.8022L6.67935 17.8013Z"/>
<path fill="#013455" d="M40.0418 20.421C39.9194 19.1965 39.0004 18.9258 37.8991 19.0348C38.117 18.6373 38.033 15.3031 36.8728 14.033C35.0793 12.0697 31.2832 12.5655 28.4858 12.5949H26.9772L26.912 12.5601V9.83588C28.7716 9.33212 29.0342 6.78297 27.6292 5.59057C25.8723 4.09984 23.2517 5.65041 23.542 7.89231C23.6447 8.68546 24.2797 9.7287 25.1265 9.83499V12.5592C25.1068 12.5726 25.0863 12.5833 25.0649 12.594H23.4777C21.5948 12.5628 19.1198 12.4485 17.421 12.7146C15.4568 13.0228 14.176 14.9717 14.0465 16.8429C13.8777 19.276 13.8804 23.0801 14.0465 25.514C14.2046 27.8229 15.6274 29.5432 17.9363 29.9308H34.1012C35.6205 29.887 37.8982 27.9318 37.8982 26.4036V25.0192C38.8914 25.1424 39.9212 24.8566 40.0418 23.724C40.1258 22.9407 40.1195 21.2088 40.0409 20.4201L40.0418 20.421ZM36.1127 25.7784C35.9689 27.2325 34.7836 28.0533 33.3929 28.1498C28.5929 27.8738 23.4026 28.5053 18.6491 28.1498C17.1869 28.0408 16.0803 27.2155 15.9293 25.6891C15.6444 22.8183 16.141 19.4984 15.9284 16.5794C16.1196 15.4576 17.0476 14.6868 18.14 14.5037L33.7511 14.4778C34.9757 14.5573 36.0332 15.513 36.118 16.7554C35.9028 19.6484 36.3949 22.9327 36.1136 25.7793L36.1127 25.7784Z"/>
<path fill="#023050" d="M61.6568 26.6142H58.5591L63.2791 12.9416H67.0043L71.7176 26.6142H68.6199L65.1951 16.066H65.0883L61.6568 26.6142ZM61.4632 21.2399H68.7801V23.4964H61.4632V21.2399Z"/>
<path fill="#023050" d="M77.4524 30.6732C76.5311 30.6732 75.7411 30.5464 75.0824 30.2927C74.4281 30.0434 73.9074 29.703 73.5202 29.2712C73.1329 28.8395 72.8815 28.3544 72.7658 27.8158L75.3961 27.462C75.4762 27.6667 75.6031 27.8581 75.7767 28.0362C75.9502 28.2142 76.1795 28.3566 76.4643 28.4634C76.7536 28.5747 77.1052 28.6303 77.5191 28.6303C78.1378 28.6303 78.6474 28.479 79.0479 28.1764C79.453 27.8782 79.6555 27.3775 79.6555 26.6742V24.7983H79.5353C79.4107 25.0831 79.2237 25.3524 78.9745 25.6061C78.7253 25.8598 78.4048 26.0667 78.0132 26.2269C77.6215 26.3872 77.1542 26.4673 76.6112 26.4673C75.8412 26.4673 75.1402 26.2893 74.5082 25.9332C73.8807 25.5727 73.38 25.023 73.0061 24.2842C72.6367 23.5409 72.452 22.6018 72.452 21.4669C72.452 20.3053 72.6411 19.335 73.0195 18.5561C73.3978 17.7773 73.9007 17.1942 74.5282 16.807C75.1602 16.4198 75.8523 16.2262 76.6045 16.2262C77.1786 16.2262 77.6593 16.3241 78.0465 16.5199C78.4337 16.7113 78.7453 16.9517 78.9812 17.241C79.2215 17.5258 79.4062 17.8062 79.5353 18.0821H79.6421V16.3597H82.4661V26.7143C82.4661 27.5866 82.2525 28.3166 81.8252 28.904C81.3979 29.4915 80.806 29.9322 80.0494 30.2259C79.2972 30.5241 78.4315 30.6732 77.4524 30.6732ZM77.5124 24.3309C77.9709 24.3309 78.3581 24.2174 78.6741 23.9905C78.9945 23.759 79.2393 23.4297 79.4085 23.0024C79.582 22.5707 79.6688 22.0544 79.6688 21.4536C79.6688 20.8527 79.5843 20.332 79.4151 19.8914C79.246 19.4463 79.0012 19.1014 78.6808 18.8566C78.3603 18.6118 77.9709 18.4894 77.5124 18.4894C77.0451 18.4894 76.6512 18.6162 76.3308 18.8699C76.0103 19.1192 75.7678 19.4663 75.6031 19.9114C75.4384 20.3565 75.3561 20.8705 75.3561 21.4536C75.3561 22.0455 75.4384 22.5573 75.6031 22.989C75.7722 23.4163 76.0148 23.7479 76.3308 23.9838C76.6512 24.2152 77.0451 24.3309 77.5124 24.3309Z"/>
<path fill="#023050" d="M84.7293 26.6142V16.3597H87.4865V18.1489H87.5933C87.7802 17.5124 88.094 17.0318 88.5346 16.7069C88.9753 16.3775 89.4826 16.2128 90.0568 16.2128C90.1992 16.2128 90.3528 16.2217 90.5174 16.2395C90.6821 16.2573 90.8268 16.2818 90.9514 16.313V18.8365C90.8179 18.7965 90.6332 18.7609 90.3973 18.7297C90.1614 18.6986 89.9455 18.683 89.7497 18.683C89.3313 18.683 88.9575 18.7742 88.6281 18.9567C88.3032 19.1347 88.0451 19.384 87.8537 19.7044C87.6668 20.0249 87.5733 20.3943 87.5733 20.8127V26.6142H84.7293Z"/>
<path fill="#023050" d="M92.4218 26.6142V16.3597H95.2658V26.6142H92.4218ZM93.8505 15.0378C93.4276 15.0378 93.0649 14.8977 92.7623 14.6173C92.4641 14.3324 92.315 13.9919 92.315 13.5958C92.315 13.2042 92.4641 12.8681 92.7623 12.5877C93.0649 12.3029 93.4276 12.1605 93.8505 12.1605C94.2733 12.1605 94.6338 12.3029 94.932 12.5877C95.2346 12.8681 95.386 13.2042 95.386 13.5958C95.386 13.9919 95.2346 14.3324 94.932 14.6173C94.6338 14.8977 94.2733 15.0378 93.8505 15.0378Z"/>
<path fill="#023050" d="M102.444 26.6142H97.5974V12.9416H102.484C103.86 12.9416 105.043 13.2153 106.036 13.7627C107.028 14.3057 107.792 15.0868 108.326 16.106C108.864 17.1252 109.134 18.3447 109.134 19.7645C109.134 21.1887 108.864 22.4127 108.326 23.4363C107.792 24.46 107.024 25.2456 106.023 25.793C105.026 26.3404 103.833 26.6142 102.444 26.6142ZM100.488 24.1373H102.324C103.179 24.1373 103.897 23.986 104.48 23.6834C105.068 23.3763 105.509 22.9023 105.802 22.2614C106.1 21.616 106.25 20.7837 106.25 19.7645C106.25 18.7542 106.1 17.9286 105.802 17.2877C105.509 16.6468 105.07 16.175 104.487 15.8724C103.904 15.5697 103.185 15.4184 102.331 15.4184H100.488V24.1373Z"/>
<path fill="#023050" d="M114.146 26.8078C113.491 26.8078 112.908 26.6943 112.397 26.4673C111.885 26.2358 111.48 25.8954 111.182 25.4458C110.888 24.9919 110.741 24.4266 110.741 23.7501C110.741 23.1804 110.846 22.702 111.055 22.3148C111.264 21.9276 111.549 21.616 111.909 21.3801C112.27 21.1442 112.679 20.9662 113.138 20.846C113.601 20.7259 114.086 20.6413 114.593 20.5923C115.189 20.53 115.67 20.4722 116.035 20.4188C116.4 20.3609 116.665 20.2763 116.83 20.1651C116.994 20.0538 117.077 19.8891 117.077 19.671V19.631C117.077 19.2082 116.943 18.881 116.676 18.6496C116.413 18.4182 116.039 18.3024 115.554 18.3024C115.043 18.3024 114.635 18.4159 114.333 18.6429C114.03 18.8655 113.83 19.1459 113.732 19.4841L111.101 19.2705C111.235 18.6474 111.498 18.1088 111.889 17.6549C112.281 17.1964 112.786 16.8448 113.405 16.6C114.028 16.3508 114.749 16.2262 115.568 16.2262C116.137 16.2262 116.683 16.293 117.203 16.4265C117.729 16.56 118.194 16.767 118.599 17.0473C119.008 17.3277 119.331 17.6882 119.567 18.1289C119.803 18.565 119.921 19.088 119.921 19.6977V26.6142H117.223V25.1922H117.143C116.979 25.5126 116.758 25.7952 116.482 26.04C116.206 26.2804 115.875 26.4695 115.488 26.6075C115.1 26.741 114.653 26.8078 114.146 26.8078ZM114.96 24.845C115.379 24.845 115.748 24.7627 116.068 24.598C116.389 24.4289 116.64 24.2019 116.823 23.917C117.005 23.6322 117.097 23.3095 117.097 22.949V21.8608C117.008 21.9187 116.885 21.9721 116.729 22.021C116.578 22.0655 116.407 22.1078 116.215 22.1479C116.024 22.1835 115.833 22.2168 115.641 22.248C115.45 22.2747 115.276 22.2992 115.12 22.3214C114.787 22.3704 114.495 22.4483 114.246 22.5551C113.997 22.6619 113.803 22.8066 113.665 22.989C113.527 23.1671 113.458 23.3896 113.458 23.6567C113.458 24.0439 113.598 24.3398 113.879 24.5446C114.164 24.7449 114.524 24.845 114.96 24.845Z"/>
<path fill="#023050" d="M127.581 16.3597V18.4961H121.406V16.3597H127.581ZM122.808 13.9029H125.652V23.4631C125.652 23.7256 125.692 23.9304 125.772 24.0772C125.852 24.2197 125.963 24.3198 126.106 24.3777C126.253 24.4355 126.422 24.4645 126.613 24.4645C126.747 24.4645 126.88 24.4533 127.014 24.4311C127.147 24.4044 127.25 24.3843 127.321 24.371L127.768 26.4873C127.626 26.5318 127.426 26.583 127.167 26.6409C126.909 26.7032 126.595 26.741 126.226 26.7544C125.541 26.7811 124.94 26.6898 124.424 26.4806C123.912 26.2715 123.513 25.9465 123.229 25.5059C122.944 25.0653 122.803 24.509 122.808 23.8369V13.9029Z"/>
<path fill="#023050" d="M132.358 26.8078C131.704 26.8078 131.121 26.6943 130.609 26.4673C130.097 26.2358 129.692 25.8954 129.394 25.4458C129.1 24.9919 128.953 24.4266 128.953 23.7501C128.953 23.1804 129.058 22.702 129.267 22.3148C129.476 21.9276 129.761 21.616 130.122 21.3801C130.482 21.1442 130.892 20.9662 131.35 20.846C131.813 20.7259 132.298 20.6413 132.805 20.5923C133.402 20.53 133.882 20.4722 134.247 20.4188C134.612 20.3609 134.877 20.2763 135.042 20.1651C135.206 20.0538 135.289 19.8891 135.289 19.671V19.631C135.289 19.2082 135.155 18.881 134.888 18.6496C134.626 18.4182 134.252 18.3024 133.767 18.3024C133.255 18.3024 132.848 18.4159 132.545 18.6429C132.242 18.8655 132.042 19.1459 131.944 19.4841L129.314 19.2705C129.447 18.6474 129.71 18.1088 130.102 17.6549C130.493 17.1964 130.998 16.8448 131.617 16.6C132.24 16.3508 132.961 16.2262 133.78 16.2262C134.35 16.2262 134.895 16.293 135.416 16.4265C135.941 16.56 136.406 16.767 136.811 17.0473C137.22 17.3277 137.543 17.6882 137.779 18.1289C138.015 18.565 138.133 19.088 138.133 19.6977V26.6142H135.436V25.1922H135.356C135.191 25.5126 134.971 25.7952 134.695 26.04C134.419 26.2804 134.087 26.4695 133.7 26.6075C133.313 26.741 132.865 26.8078 132.358 26.8078ZM133.173 24.845C133.591 24.845 133.96 24.7627 134.281 24.598C134.601 24.4289 134.853 24.2019 135.035 23.917C135.218 23.6322 135.309 23.3095 135.309 22.949V21.8608C135.22 21.9187 135.097 21.9721 134.942 22.021C134.79 22.0655 134.619 22.1078 134.428 22.1479C134.236 22.1835 134.045 22.2168 133.853 22.248C133.662 22.2747 133.489 22.2992 133.333 22.3214C132.999 22.3704 132.707 22.4483 132.458 22.5551C132.209 22.6619 132.015 22.8066 131.877 22.989C131.739 23.1671 131.67 23.3896 131.67 23.6567C131.67 24.0439 131.811 24.3398 132.091 24.5446C132.376 24.7449 132.736 24.845 133.173 24.845Z"/>
<path fill="#023050" d="M147.1 26.6142H144.003L148.723 12.9416H152.448L157.161 26.6142H154.064L150.639 16.066H150.532L147.1 26.6142ZM146.907 21.2399H154.224V23.4964H146.907V21.2399Z"/>
<path fill="#023050" d="M161.698 12.9416V26.6142H158.807V12.9416H161.698Z"/>
<path fill="#023050" d="M168.427 26.6142V12.9416H171.318V24.2308H177.18V26.6142H168.427Z"/>
<path fill="#023050" d="M181.965 26.8078C181.31 26.8078 180.727 26.6943 180.215 26.4673C179.704 26.2358 179.299 25.8954 179 25.4458C178.707 24.9919 178.56 24.4266 178.56 23.7501C178.56 23.1804 178.664 22.702 178.874 22.3148C179.083 21.9276 179.368 21.616 179.728 21.3801C180.089 21.1442 180.498 20.9662 180.957 20.846C181.419 20.7259 181.905 20.6413 182.412 20.5923C183.008 20.53 183.489 20.4722 183.854 20.4188C184.219 20.3609 184.484 20.2763 184.648 20.1651C184.813 20.0538 184.895 19.8891 184.895 19.671V19.631C184.895 19.2082 184.762 18.881 184.495 18.6496C184.232 18.4182 183.858 18.3024 183.373 18.3024C182.861 18.3024 182.454 18.4159 182.152 18.6429C181.849 18.8655 181.649 19.1459 181.551 19.4841L178.92 19.2705C179.054 18.6474 179.316 18.1088 179.708 17.6549C180.1 17.1964 180.605 16.8448 181.224 16.6C181.847 16.3508 182.568 16.2262 183.387 16.2262C183.956 16.2262 184.501 16.293 185.022 16.4265C185.547 16.56 186.013 16.767 186.418 17.0473C186.827 17.3277 187.15 17.6882 187.386 18.1289C187.621 18.565 187.739 19.088 187.739 19.6977V26.6142H185.042V25.1922H184.962C184.797 25.5126 184.577 25.7952 184.301 26.04C184.025 26.2804 183.694 26.4695 183.306 26.6075C182.919 26.741 182.472 26.8078 181.965 26.8078ZM182.779 24.845C183.197 24.845 183.567 24.7627 183.887 24.598C184.208 24.4289 184.459 24.2019 184.642 23.917C184.824 23.6322 184.915 23.3095 184.915 22.949V21.8608C184.826 21.9187 184.704 21.9721 184.548 22.021C184.397 22.0655 184.226 22.1078 184.034 22.1479C183.843 22.1835 183.651 22.2168 183.46 22.248C183.269 22.2747 183.095 22.2992 182.939 22.3214C182.605 22.3704 182.314 22.4483 182.065 22.5551C181.815 22.6619 181.622 22.8066 181.484 22.989C181.346 23.1671 181.277 23.3896 181.277 23.6567C181.277 24.0439 181.417 24.3398 181.698 24.5446C181.982 24.7449 182.343 24.845 182.779 24.845Z"/>
<path fill="#023050" d="M189.999 26.6142V12.9416H192.843V18.0821H192.93C193.055 17.8062 193.235 17.5258 193.471 17.241C193.711 16.9517 194.023 16.7113 194.405 16.5199C194.793 16.3241 195.273 16.2262 195.847 16.2262C196.595 16.2262 197.285 16.422 197.917 16.8137C198.549 17.2009 199.054 17.7862 199.433 18.5695C199.811 19.3484 200 20.3253 200 21.5003C200 22.6441 199.815 23.6099 199.446 24.3977C199.081 25.181 198.582 25.7752 197.95 26.1802C197.323 26.5808 196.62 26.7811 195.841 26.7811C195.289 26.7811 194.819 26.6898 194.432 26.5073C194.049 26.3249 193.736 26.0956 193.491 25.8197C193.246 25.5393 193.059 25.2567 192.93 24.9718H192.803V26.6142H189.999ZM192.783 21.4869C192.783 22.0967 192.868 22.6285 193.037 23.0825C193.206 23.5365 193.451 23.8903 193.771 24.144C194.092 24.3932 194.481 24.5179 194.94 24.5179C195.402 24.5179 195.794 24.391 196.115 24.1373C196.435 23.8792 196.678 23.5231 196.842 23.0692C197.011 22.6107 197.096 22.0833 197.096 21.4869C197.096 20.895 197.014 20.3743 196.849 19.9247C196.684 19.4752 196.442 19.1236 196.121 18.8699C195.801 18.6162 195.407 18.4894 194.94 18.4894C194.477 18.4894 194.085 18.6118 193.765 18.8566C193.449 19.1014 193.206 19.4485 193.037 19.898C192.868 20.3476 192.783 20.8772 192.783 21.4869Z"/>
</svg>