<svg width="262" height="56" viewBox="0 0 262 56" fill="none" xmlns="http://www.w3.org/2000/svg">
<path d="M62.3058 28C62.3058 41.9066 49.7701 56 34.3058 56C18.8414 56 6.30579 43.4643 6.30579 28C6.30579 12.5357 18.8414 0 34.3058 0C49.7701 0 62.3058 12.5357 62.3058 28Z" fill="#4C9FA7"/>
<path d="M48.946 51.4927C39.9428 57.1656 28.0949 57.1808 19.0952 51.4881C19.2493 49.1432 18.5743 46.2239 19.6323 44.0741C20.4182 42.4766 21.9001 41.3941 23.5944 40.913H44.3241C46.1037 41.3346 47.8215 42.7242 48.5186 44.4256C49.3828 46.5357 48.8059 49.2437 48.946 51.4927Z" fill="#013455"/>
<path d="M23.7135 18.9607L44.1232 18.9268C45.7241 19.0308 47.1067 20.2803 47.2177 21.9046C46.9363 25.6869 47.5797 29.9806 47.213 33.7022C47.025 35.6033 45.4754 36.6765 43.6573 36.8026C37.3818 36.4417 30.5961 37.2673 24.3814 36.8026C22.4698 36.6601 21.023 35.5811 20.8257 33.5855C20.4532 29.8323 21.1024 25.4919 20.8245 21.6757C21.0744 20.209 22.2877 19.2013 23.7158 18.9619L23.7135 18.9607ZM26.4705 28.4649C28.1088 30.0612 30.9126 28.02 29.5627 25.8982C27.9734 23.4016 24.3744 26.4237 26.4705 28.4649ZM39.7091 25.0318C37.341 25.43 37.8419 29.273 40.3304 29.0383C43.0302 28.7837 42.6133 24.5437 39.7091 25.0318ZM30.1337 30.9791C29.3069 31.1472 29.3186 32.197 29.8698 32.7132C31.1438 33.9054 33.6346 34.4157 35.3091 34.0584C36.3052 33.8459 39.0867 32.7937 38.511 31.4275C37.9774 30.1605 36.283 31.8794 35.5006 32.148C34.2803 32.566 33.039 32.4364 31.9157 31.8362C31.3622 31.5407 30.7946 30.8448 30.1349 30.9791H30.1337Z" fill="white"/>
<path d="M30.1338 30.979C30.7924 30.8447 31.3611 31.5419 31.9146 31.8361C33.0391 32.4364 34.2793 32.566 35.4995 32.1479C36.2819 31.8793 37.9775 30.1604 38.51 31.4274C39.0845 32.7937 36.3041 33.8458 35.308 34.0583C33.6335 34.4157 31.1439 33.9054 29.8687 32.7131C29.3175 32.197 29.307 31.1472 30.1326 30.979H30.1338Z" fill="#013455"/>
<path d="M26.4705 28.4649C24.3744 26.4236 27.9733 23.4015 29.5626 25.8982C30.9125 28.0199 28.11 30.0612 26.4705 28.4649Z" fill="#013455"/>
<path d="M39.7092 25.0318C42.6134 24.5437 43.0302 28.7825 40.3304 29.0383C37.842 29.273 37.341 25.43 39.7092 25.0318Z" fill="#013455"/>
<path d="M7.54031 14.3178C15.0092 13.6381 19.0939 22.2922 14.7067 28.0282C14.618 28.577 15.697 30.0834 15.7355 30.6976C15.8429 32.3733 12.5289 30.4933 11.8072 30.429C5.44189 33.2421 -1.44309 27.505 0.26414 20.7041C1.11776 17.3013 4.00674 14.6389 7.54031 14.3178ZM8.73257 23.2731C8.98597 20.8758 7.02884 18.7937 4.63732 19.0039C4.25313 20.6025 4.91407 22.8259 6.43096 23.648C6.70888 23.7986 7.48192 23.9679 7.54848 24.1653C7.69328 24.8484 7.33829 27.4385 7.73649 27.8308C7.91866 28.0106 8.26898 27.9873 8.50019 27.8869C8.95444 27.6195 8.59478 25.9858 8.78395 25.4848C11.1136 25.0177 12.7683 23.1342 12.5873 20.7029C11.2958 20.571 10.3125 20.8396 9.50211 21.8812L8.73374 23.272L8.73257 23.2731Z" fill="#003354"/>
<path d="M8.73248 23.2731L9.50085 21.8824C10.3113 20.8396 11.2933 20.5722 12.586 20.7041C12.7682 23.1342 11.1135 25.0177 8.78269 25.486C8.59352 25.987 8.95318 27.6195 8.49893 27.888C8.26772 27.9873 7.9174 28.0118 7.73523 27.832C7.33703 27.4396 7.69202 24.8496 7.54722 24.1665C7.48066 23.968 6.70762 23.7998 6.4297 23.6492C4.91281 22.8271 4.25187 20.6037 4.63605 19.0051C7.02758 18.7949 8.98471 20.877 8.73131 23.2743L8.73248 23.2731Z" fill="white"/>
<path d="M52.35 26.6981C52.19 25.0971 50.9884 24.7433 49.5486 24.8858C49.8335 24.3661 49.7237 20.007 48.2069 18.3465C45.862 15.7798 40.8992 16.4279 37.2418 16.4664H35.2695L35.1842 16.4209V12.8593C37.6155 12.2007 37.9588 8.86794 36.1219 7.30901C33.825 5.36005 30.3989 7.38724 30.7784 10.3183C30.9127 11.3552 31.7429 12.7191 32.8499 12.8581V16.4197C32.8243 16.4372 32.7974 16.4512 32.7694 16.4652H30.6943C28.2327 16.4244 24.9969 16.2749 22.7759 16.6229C20.208 17.0257 18.5335 19.5738 18.3642 22.0202C18.1435 25.2011 18.147 30.1745 18.3642 33.3565C18.5709 36.3751 20.4311 38.6242 23.4497 39.131H44.5834C46.5697 39.0738 49.5474 36.5176 49.5474 34.5196V32.7096C50.8459 32.8708 52.1923 32.4971 52.35 31.0164C52.4598 29.9923 52.4516 27.7281 52.3488 26.6969L52.35 26.6981ZM47.2131 33.7022C47.0251 35.6033 45.4755 36.6764 43.6573 36.8025C37.3819 36.4417 30.5962 37.2673 24.3815 36.8025C22.4699 36.6601 21.0231 35.5811 20.8258 33.5854C20.4533 29.8323 21.1025 25.4918 20.8246 21.6757C21.0745 20.209 22.2878 19.2012 23.7159 18.9619L44.1256 18.928C45.7266 19.0319 47.1092 20.2814 47.2201 21.9057C46.9387 25.688 47.5821 29.9818 47.2143 33.7034L47.2131 33.7022Z" fill="#013455"/>
<path d="M80.6091 34.7949H76.5592L82.73 16.9196H87.6004L93.7625 34.7949H89.7126L85.235 21.0044H85.0954L80.6091 34.7949ZM80.356 27.7687H89.9221V30.7188H80.356V27.7687Z" fill="white"/>
<path d="M101.26 40.1016C100.055 40.1016 99.0226 39.9358 98.1615 39.6041C97.3061 39.2783 96.6253 38.8331 96.1191 38.2687C95.6128 37.7043 95.2841 37.07 95.1328 36.366L98.5717 35.9034C98.6764 36.171 98.8423 36.4212 99.0692 36.654C99.2961 36.8867 99.5958 37.0729 99.9682 37.2126C100.346 37.3581 100.806 37.4308 101.347 37.4308C102.156 37.4308 102.822 37.233 103.346 36.8373C103.876 36.4474 104.14 35.7928 104.14 34.8734V32.4208H103.983C103.82 32.7932 103.576 33.1453 103.25 33.4769C102.924 33.8086 102.505 34.0792 101.993 34.2887C101.481 34.4981 100.87 34.6029 100.16 34.6029C99.1536 34.6029 98.2371 34.3701 97.4108 33.9046C96.5904 33.4333 95.9358 32.7147 95.447 31.7488C94.964 30.777 94.7226 29.5493 94.7226 28.0655C94.7226 26.5468 94.9698 25.2783 95.4644 24.26C95.959 23.2417 96.6166 22.4794 97.437 21.9732C98.2633 21.467 99.1681 21.2138 100.151 21.2138C100.902 21.2138 101.531 21.3419 102.037 21.5979C102.543 21.8481 102.95 22.1623 103.259 22.5405C103.573 22.9129 103.814 23.2795 103.983 23.6403H104.123V21.3884H107.815V34.9258C107.815 36.0663 107.536 37.0206 106.977 37.7887C106.418 38.5567 105.644 39.1328 104.655 39.5168C103.672 39.9067 102.54 40.1016 101.26 40.1016ZM101.339 31.8099C101.938 31.8099 102.444 31.6615 102.857 31.3647C103.276 31.0621 103.596 30.6315 103.817 30.0729C104.044 29.5085 104.158 28.8335 104.158 28.048C104.158 27.2625 104.047 26.5817 103.826 26.0056C103.605 25.4237 103.285 24.9728 102.866 24.6527C102.447 24.3327 101.938 24.1727 101.339 24.1727C100.728 24.1727 100.213 24.3385 99.7936 24.6702C99.3747 24.9961 99.0575 25.4499 98.8423 26.0318C98.627 26.6137 98.5193 27.2857 98.5193 28.048C98.5193 28.8219 98.627 29.4911 98.8423 30.0555C99.0634 30.6141 99.3805 31.0476 99.7936 31.356C100.213 31.6586 100.728 31.8099 101.339 31.8099Z" fill="white"/>
<path d="M110.774 34.7949V21.3884H114.378V23.7276H114.518C114.762 22.8955 115.173 22.267 115.749 21.8423C116.325 21.4117 116.988 21.1964 117.739 21.1964C117.925 21.1964 118.126 21.208 118.341 21.2313C118.556 21.2546 118.745 21.2866 118.908 21.3273V24.6266C118.734 24.5742 118.492 24.5276 118.184 24.4869C117.876 24.4462 117.593 24.4258 117.337 24.4258C116.79 24.4258 116.302 24.5451 115.871 24.7837C115.446 25.0164 115.109 25.3423 114.858 25.7612C114.614 26.1802 114.492 26.6631 114.492 27.2101V34.7949H110.774Z" fill="white"/>
<path d="M120.831 34.7949V21.3884H124.549V34.7949H120.831ZM122.699 19.6602C122.146 19.6602 121.672 19.4769 121.276 19.1103C120.886 18.7379 120.691 18.2928 120.691 17.7749C120.691 17.2629 120.886 16.8236 121.276 16.457C121.672 16.0846 122.146 15.8984 122.699 15.8984C123.251 15.8984 123.723 16.0846 124.113 16.457C124.508 16.8236 124.706 17.2629 124.706 17.7749C124.706 18.2928 124.508 18.7379 124.113 19.1103C123.723 19.4769 123.251 19.6602 122.699 19.6602Z" fill="white"/>
<path d="M133.934 34.7949H127.597V16.9196H133.986C135.784 16.9196 137.332 17.2774 138.63 17.9931C139.927 18.703 140.925 19.7242 141.623 21.0567C142.328 22.3892 142.68 23.9836 142.68 25.8398C142.68 27.7018 142.328 29.302 141.623 30.6403C140.925 31.9786 139.921 33.0056 138.612 33.7213C137.309 34.437 135.749 34.7949 133.934 34.7949ZM131.377 31.5567H133.777C134.894 31.5567 135.834 31.3589 136.596 30.9632C137.364 30.5617 137.94 29.942 138.324 29.1041C138.714 28.2604 138.909 27.1723 138.909 25.8398C138.909 24.5189 138.714 23.4395 138.324 22.6016C137.94 21.7637 137.367 21.1469 136.605 20.7512C135.842 20.3556 134.903 20.1577 133.786 20.1577H131.377V31.5567Z" fill="white"/>
<path d="M149.232 35.048C148.377 35.048 147.615 34.8996 146.945 34.6029C146.276 34.3003 145.747 33.8552 145.357 33.2675C144.973 32.6739 144.781 31.935 144.781 31.0505C144.781 30.3057 144.918 29.6802 145.191 29.1739C145.465 28.6677 145.837 28.2604 146.308 27.952C146.78 27.6436 147.315 27.4108 147.914 27.2537C148.519 27.0966 149.154 26.9861 149.817 26.9221C150.597 26.8406 151.225 26.765 151.702 26.6951C152.179 26.6195 152.526 26.5089 152.741 26.3635C152.956 26.218 153.064 26.0027 153.064 25.7176V25.6652C153.064 25.1124 152.889 24.6847 152.54 24.3822C152.197 24.0796 151.708 23.9283 151.074 23.9283C150.405 23.9283 149.872 24.0767 149.477 24.3734C149.081 24.6644 148.819 25.031 148.691 25.4732L145.252 25.1939C145.427 24.3793 145.77 23.6752 146.282 23.0817C146.794 22.4823 147.455 22.0227 148.263 21.7026C149.078 21.3768 150.021 21.2138 151.091 21.2138C151.836 21.2138 152.549 21.3011 153.23 21.4757C153.916 21.6502 154.524 21.9208 155.054 22.2874C155.589 22.654 156.011 23.1253 156.32 23.7014C156.628 24.2716 156.782 24.9553 156.782 25.7525V34.7949H153.256V32.9358H153.151C152.936 33.3547 152.648 33.7242 152.287 34.0443C151.926 34.3585 151.493 34.6058 150.987 34.7862C150.48 34.9607 149.896 35.048 149.232 35.048ZM150.297 32.4819C150.844 32.4819 151.327 32.3743 151.746 32.159C152.165 31.9379 152.494 31.6411 152.732 31.2687C152.971 30.8963 153.09 30.4744 153.09 30.0031V28.5804C152.974 28.6561 152.814 28.7259 152.61 28.7899C152.412 28.8481 152.188 28.9034 151.938 28.9557C151.688 29.0023 151.438 29.0459 151.187 29.0867C150.937 29.1216 150.71 29.1536 150.507 29.1827C150.07 29.2467 149.689 29.3485 149.363 29.4882C149.037 29.6278 148.784 29.8169 148.604 30.0555C148.423 30.2882 148.333 30.5792 148.333 30.9283C148.333 31.4345 148.517 31.8215 148.883 32.0892C149.256 32.351 149.727 32.4819 150.297 32.4819Z" fill="white"/>
<path d="M166.798 21.3884V24.1814H158.724V21.3884H166.798ZM160.557 18.1764H164.275V30.6752C164.275 31.0185 164.328 31.2862 164.432 31.4782C164.537 31.6644 164.683 31.7953 164.869 31.871C165.061 31.9466 165.282 31.9844 165.532 31.9844C165.707 31.9844 165.881 31.9699 166.056 31.9408C166.23 31.9059 166.364 31.8797 166.457 31.8622L167.042 34.6291C166.856 34.6872 166.594 34.7542 166.257 34.8298C165.919 34.9113 165.509 34.9607 165.026 34.9782C164.13 35.0131 163.344 34.8938 162.669 34.6203C162 34.3468 161.479 33.9221 161.107 33.346C160.735 32.77 160.551 32.0426 160.557 31.164V18.1764Z" fill="white"/>
<path d="M173.043 35.048C172.187 35.048 171.425 34.8996 170.756 34.6029C170.087 34.3003 169.557 33.8552 169.167 33.2675C168.783 32.6739 168.591 31.935 168.591 31.0505C168.591 30.3057 168.728 29.6802 169.002 29.1739C169.275 28.6677 169.647 28.2604 170.119 27.952C170.59 27.6436 171.125 27.4108 171.725 27.2537C172.33 27.0966 172.964 26.9861 173.627 26.9221C174.407 26.8406 175.036 26.765 175.513 26.6951C175.99 26.6195 176.336 26.5089 176.551 26.3635C176.767 26.218 176.874 26.0027 176.874 25.7176V25.6652C176.874 25.1124 176.7 24.6847 176.351 24.3822C176.007 24.0796 175.519 23.9283 174.884 23.9283C174.215 23.9283 173.683 24.0767 173.287 24.3734C172.891 24.6644 172.63 25.031 172.502 25.4732L169.063 25.1939C169.237 24.3793 169.581 23.6752 170.093 23.0817C170.605 22.4823 171.265 22.0227 172.074 21.7026C172.889 21.3768 173.831 21.2138 174.902 21.2138C175.647 21.2138 176.359 21.3011 177.04 21.4757C177.727 21.6502 178.335 21.9208 178.864 22.2874C179.4 22.654 179.822 23.1253 180.13 23.7014C180.438 24.2716 180.593 24.9553 180.593 25.7525V34.7949H177.066V32.9358H176.962C176.746 33.3547 176.458 33.7242 176.098 34.0443C175.737 34.3585 175.303 34.6058 174.797 34.7862C174.291 34.9607 173.706 35.048 173.043 35.048ZM174.108 32.4819C174.655 32.4819 175.137 32.3743 175.556 32.159C175.975 31.9379 176.304 31.6411 176.543 31.2687C176.781 30.8963 176.901 30.4744 176.901 30.0031V28.5804C176.784 28.6561 176.624 28.7259 176.421 28.7899C176.223 28.8481 175.999 28.9034 175.748 28.9557C175.498 29.0023 175.248 29.0459 174.998 29.0867C174.748 29.1216 174.521 29.1536 174.317 29.1827C173.881 29.2467 173.499 29.3485 173.174 29.4882C172.848 29.6278 172.595 29.8169 172.414 30.0555C172.234 30.2882 172.144 30.5792 172.144 30.9283C172.144 31.4345 172.327 31.8215 172.694 32.0892C173.066 32.351 173.537 32.4819 174.108 32.4819Z" fill="white"/>
<path d="M192.317 34.7949H188.267L194.438 16.9196H199.308L205.47 34.7949H201.42L196.943 21.0044H196.803L192.317 34.7949ZM192.064 27.7687H201.63V30.7188H192.064V27.7687Z" fill="white"/>
<path d="M211.401 16.9196V34.7949H207.622V16.9196H211.401Z" fill="white"/>
<path d="M220.199 34.7949V16.9196H223.978V31.6789H231.642V34.7949H220.199Z" fill="white"/>
<path d="M237.897 35.048C237.042 35.048 236.28 34.8996 235.611 34.6029C234.942 34.3003 234.412 33.8552 234.022 33.2675C233.638 32.6739 233.446 31.935 233.446 31.0505C233.446 30.3057 233.583 29.6802 233.856 29.1739C234.13 28.6677 234.502 28.2604 234.974 27.952C235.445 27.6436 235.98 27.4108 236.58 27.2537C237.185 27.0966 237.819 26.9861 238.482 26.9221C239.262 26.8406 239.89 26.765 240.368 26.6951C240.845 26.6195 241.191 26.5089 241.406 26.3635C241.621 26.218 241.729 26.0027 241.729 25.7176V25.6652C241.729 25.1124 241.555 24.6847 241.205 24.3822C240.862 24.0796 240.373 23.9283 239.739 23.9283C239.07 23.9283 238.538 24.0767 238.142 24.3734C237.746 24.6644 237.484 25.031 237.356 25.4732L233.917 25.1939C234.092 24.3793 234.435 23.6752 234.947 23.0817C235.459 22.4823 236.12 22.0227 236.929 21.7026C237.743 21.3768 238.686 21.2138 239.757 21.2138C240.501 21.2138 241.214 21.3011 241.895 21.4757C242.582 21.6502 243.19 21.9208 243.719 22.2874C244.254 22.654 244.676 23.1253 244.985 23.7014C245.293 24.2716 245.447 24.9553 245.447 25.7525V34.7949H241.921V32.9358H241.816C241.601 33.3547 241.313 33.7242 240.952 34.0443C240.592 34.3585 240.158 34.6058 239.652 34.7862C239.146 34.9607 238.561 35.048 237.897 35.048ZM238.962 32.4819C239.509 32.4819 239.992 32.3743 240.411 32.159C240.83 31.9379 241.159 31.6411 241.397 31.2687C241.636 30.8963 241.755 30.4744 241.755 30.0031V28.5804C241.639 28.6561 241.479 28.7259 241.275 28.7899C241.077 28.8481 240.853 28.9034 240.603 28.9557C240.353 29.0023 240.103 29.0459 239.853 29.0867C239.602 29.1216 239.375 29.1536 239.172 29.1827C238.735 29.2467 238.354 29.3485 238.028 29.4882C237.703 29.6278 237.449 29.8169 237.269 30.0555C237.089 30.2882 236.998 30.5792 236.998 30.9283C236.998 31.4345 237.182 31.8215 237.548 32.0892C237.921 32.351 238.392 32.4819 238.962 32.4819Z" fill="white"/>
<path d="M248.402 34.7949V16.9196H252.12V23.6403H252.234C252.396 23.2795 252.632 22.9129 252.94 22.5405C253.255 22.1623 253.662 21.8481 254.162 21.5979C254.669 21.3419 255.297 21.2138 256.048 21.2138C257.025 21.2138 257.927 21.4699 258.753 21.9819C259.58 22.4882 260.24 23.2533 260.735 24.2774C261.229 25.2957 261.477 26.5729 261.477 28.1091C261.477 29.6045 261.235 30.8672 260.752 31.8971C260.275 32.9212 259.623 33.698 258.797 34.2276C257.977 34.7513 257.057 35.0131 256.039 35.0131C255.317 35.0131 254.704 34.8938 254.197 34.6552C253.697 34.4167 253.287 34.117 252.967 33.7562C252.647 33.3897 252.402 33.0202 252.234 32.6478H252.068V34.7949H248.402ZM252.041 28.0916C252.041 28.8888 252.152 29.5842 252.373 30.1777C252.594 30.7712 252.914 31.2338 253.333 31.5655C253.752 31.8913 254.261 32.0542 254.861 32.0542C255.466 32.0542 255.978 31.8884 256.397 31.5567C256.816 31.2192 257.133 30.7537 257.348 30.1602C257.569 29.5609 257.68 28.8714 257.68 28.0916C257.68 27.3177 257.572 26.637 257.357 26.0493C257.142 25.4616 256.825 25.0019 256.406 24.6702C255.987 24.3385 255.472 24.1727 254.861 24.1727C254.256 24.1727 253.743 24.3327 253.325 24.6527C252.911 24.9728 252.594 25.4266 252.373 26.0143C252.152 26.602 252.041 27.2945 252.041 28.0916Z" fill="white"/>
</svg>
